<?xml version="1.0" standalone="no"?><!DOCTYPE svg PUBLIC "-//W3C//DTD SVG 1.1//EN" "http://www.w3.org/Graphics/SVG/1.1/DTD/svg11.dtd"><svg t="1762932192120" class="icon" viewBox="0 0 1024 1024" version="1.1" xmlns="http://www.w3.org/2000/svg" p-id="11513" xmlns:xlink="http://www.w3.org/1999/xlink" width="200" height="200"><path d="M608 949.333333a32 32 0 0 1 4.352 63.701334l-4.352 0.298666h-213.333333a32 32 0 0 1-4.352-63.701333l4.352-0.298667h213.333333z m42.666667-106.666666a32 32 0 0 1 4.352 63.701333l-4.352 0.298667h-298.666667a32 32 0 0 1-4.352-63.701334l4.352-0.298666h298.666667zM267.52 310.186667a330.666667 330.666667 0 0 1 467.626667 467.626666 32 32 0 0 1-22.613334 9.386667H290.133333a32 32 0 0 1-22.613333-9.386667 330.666667 330.666667 0 0 1 0-467.626666z m422.4 45.226666a266.666667 266.666667 0 0 0-390.4 362.88l4.352 4.906667h394.88l4.394667-4.906667a266.666667 266.666667 0 0 0-6.442667-355.84l-6.826667-6.997333zM970.666667 512a32 32 0 0 1 4.352 63.701333l-4.352 0.298667h-42.666667a32 32 0 0 1-4.352-63.701333L928 512h42.666667z m-896 0a32 32 0 0 1 4.352 63.701333l-4.352 0.298667h-42.666667a32 32 0 0 1-4.352-63.701333L32 512h42.666667z m781.184-322.517333a32 32 0 0 1 2.858666 41.984l-2.858666 3.285333-30.208 30.165333a32 32 0 0 1-48.085334-41.984l2.858667-3.242666 30.165333-30.208a32 32 0 0 1 45.226667 0zM188.8 186.624l3.285333 2.858667 30.165334 30.208a32 32 0 0 1-41.984 48.085333L177.066667 264.96l-30.208-30.165333a32 32 0 0 1 41.984-48.128zM501.333333 42.666667a32 32 0 0 1 31.701334 27.648l0.298666 4.352v42.666666a32 32 0 0 1-63.701333 4.352L469.333333 117.333333v-42.666666a32 32 0 0 1 32-32z" fill="#000000" p-id="11514"></path></svg>