<svg width="20.000000" height="20.000000" viewBox="0 0 20 20" fill="none" xmlns="http://www.w3.org/2000/svg" xmlns:xlink="http://www.w3.org/1999/xlink">
	<desc>
			Created with Pixso.
	</desc>
	<defs>
		<clipPath id="clip1_545">
			<rect width="20.000000" height="20.000000" fill="white" fill-opacity="0"/>
		</clipPath>
	</defs>
	<g clip-path="url(#clip1_545)">
		<g opacity="0.000000">
			<rect width="20.000000" height="20.000000" fill="#000000" fill-opacity="1.000000"/>
		</g>
		<path d="M1.48 9.45C1.48 10.49 1.73 11.5 2.23 12.48C2.73 13.45 3.42 14.3 4.3 15.01C4.46 15.13 4.5 15.35 4.41 15.66C4.33 15.98 4.2 16.4 4 16.91L3.88 17.2C3.83 17.3 3.82 17.41 3.83 17.54C3.83 17.65 3.88 17.75 3.95 17.84C4.05 17.95 4.13 18.02 4.21 18.04C4.3 18.07 4.41 18.06 4.55 18.04C5.11 17.91 5.58 17.78 5.96 17.64C6.35 17.49 6.74 17.31 7.15 17.1C7.28 17.03 7.46 16.92 7.6 16.86C7.73 16.81 7.84 16.77 7.94 16.75C8.59 16.89 9.27 16.95 10 16.95C11.53 16.95 12.95 16.62 14.25 15.95C15.56 15.27 16.6 14.36 17.38 13.21C18.15 12.07 18.54 10.81 18.54 9.45C18.54 8.09 18.15 6.84 17.38 5.69C16.6 4.53 15.56 3.62 14.25 2.95C12.95 2.27 11.53 1.94 10 1.94C8.46 1.94 7.04 2.27 5.74 2.95C4.43 3.62 3.4 4.53 2.63 5.69C1.86 6.84 1.48 8.09 1.48 9.45ZM2.78 9.45C2.78 8.32 3.1 7.27 3.75 6.31C4.39 5.36 5.27 4.59 6.38 4.03C7.48 3.46 8.69 3.18 10 3.18C11.3 3.18 12.5 3.46 13.6 4.03C14.7 4.59 15.58 5.36 16.23 6.31C16.87 7.27 17.2 8.32 17.2 9.45C17.2 10.59 16.87 11.63 16.23 12.6C15.58 13.56 14.7 14.32 13.6 14.88C12.5 15.43 11.3 15.71 10 15.71C9.4 15.71 8.8 15.65 8.21 15.54C7.99 15.48 7.77 15.49 7.55 15.56C7.34 15.64 7.07 15.76 6.74 15.94L6.24 16.18C6 16.28 5.75 16.39 5.5 16.5C5.65 15.99 5.72 15.48 5.68 15.06C5.63 14.65 5.43 14.3 5.08 14.04C4.35 13.45 3.78 12.75 3.38 11.95C2.98 11.15 2.78 10.32 2.78 9.45Z" fill="#000000" fill-opacity="0.901961" fill-rule="nonzero"/>
		<path d="M5.75 8.58C5.46 8.58 5.21 8.68 5 8.89C4.78 9.09 4.68 9.35 4.68 9.65C4.68 9.95 4.78 10.2 5 10.41C5.21 10.63 5.46 10.74 5.75 10.74C6.06 10.74 6.32 10.63 6.54 10.41C6.75 10.2 6.85 9.95 6.85 9.65C6.85 9.36 6.75 9.11 6.54 8.89C6.32 8.68 6.06 8.58 5.75 8.58ZM8.91 9.65C8.91 9.95 9.02 10.2 9.24 10.41C9.45 10.63 9.7 10.74 10 10.74C10.3 10.74 10.56 10.63 10.76 10.41C10.97 10.2 11.08 9.95 11.08 9.65C11.08 9.35 10.97 9.09 10.76 8.89C10.56 8.68 10.3 8.58 10 8.58C9.7 8.58 9.45 8.68 9.24 8.89C9.02 9.09 8.91 9.35 8.91 9.65ZM13.15 9.65C13.15 9.95 13.26 10.2 13.48 10.41C13.69 10.63 13.94 10.74 14.24 10.74C14.54 10.74 14.8 10.63 15 10.41C15.21 10.2 15.31 9.95 15.31 9.65C15.31 9.35 15.21 9.09 15 8.89C14.8 8.68 14.54 8.58 14.24 8.58C13.94 8.58 13.69 8.68 13.48 8.89C13.26 9.09 13.15 9.35 13.15 9.65Z" fill="#000000" fill-opacity="0.901961" fill-rule="nonzero"/>
	</g>
</svg>
