<?xml version="1.0" standalone="no"?><!DOCTYPE svg PUBLIC "-//W3C//DTD SVG 1.1//EN" "http://www.w3.org/Graphics/SVG/1.1/DTD/svg11.dtd"><svg t="1762936787387" class="icon" viewBox="0 0 1024 1024" version="1.1" xmlns="http://www.w3.org/2000/svg" p-id="13591" xmlns:xlink="http://www.w3.org/1999/xlink" width="200" height="200"><path d="M802.594595 691.891892c-49.871568 0-94.595459 21.974486-125.038703 56.790486l-254.976-147.206919C435.559784 574.380973 442.810811 544.048432 442.810811 512c0-28.201514-5.618162-55.10227-15.830486-79.622919l247.005405-142.612757C706.892108 332.357189 758.451892 359.783784 816.432432 359.783784c99.355676 0 179.891892-80.536216 179.891892-179.891892S915.788108 0 816.432432 0 636.540541 80.536216 636.540541 179.891892c0 21.559351 3.791568 42.233081 10.738162 61.384649l-248.195459 143.304649C361.112216 335.788973 301.830919 304.432432 235.243243 304.432432 120.610595 304.432432 27.675676 397.367351 27.675676 512S120.610595 719.567568 235.243243 719.567568c62.685405 0 118.894703-27.786378 156.948757-71.735351l256.359784 148.009514C640.802595 815.020973 636.540541 835.999135 636.540541 857.945946c0 91.717189 74.336865 166.054054 166.054054 166.054054s166.054054-74.336865 166.054054-166.054054S894.311784 691.891892 802.594595 691.891892zM235.243243 664.216216C151.164541 664.216216 83.027027 596.078703 83.027027 512S151.164541 359.783784 235.243243 359.783784s152.216216 68.137514 152.216216 152.216216S319.321946 664.216216 235.243243 664.216216zM818.757189 319.460324c-76.412541 0-138.378378-61.965838-138.378378-138.378378s61.965838-138.378378 138.378378-138.378378 138.378378 61.965838 138.378378 138.378378S895.16973 319.460324 818.757189 319.460324zM801.847351 982.043676c-68.774054 0-124.540541-55.766486-124.540541-124.540541s55.766486-124.540541 124.540541-124.540541 124.540541 55.766486 124.540541 124.540541S870.621405 982.043676 801.847351 982.043676z" p-id="13592" fill="#515151"></path></svg>