<?xml version="1.0" standalone="no"?><!DOCTYPE svg PUBLIC "-//W3C//DTD SVG 1.1//EN" "http://www.w3.org/Graphics/SVG/1.1/DTD/svg11.dtd"><svg t="1764422573883" class="icon" viewBox="0 0 1024 1024" version="1.1" xmlns="http://www.w3.org/2000/svg" p-id="13365" xmlns:xlink="http://www.w3.org/1999/xlink" width="200" height="200"><path d="M837.546667 104.618667a109.226667 109.226667 0 0 1 111.786666 106.666666V708.266667a109.269333 109.269333 0 0 1-111.829333 106.666666H625.066667l-214.272 135.850667a38.826667 38.826667 0 0 1-35.413334 2.986667 35.712 35.712 0 0 1-21.973333-26.666667l-0.512-5.888V814.933333H166.4a109.952 109.952 0 0 1-111.317333-96.298666l-0.426667-10.368V211.114667a109.269333 109.269333 0 0 1 111.786667-106.666667z m6.826666 67.712H159.616a37.12 37.12 0 0 0-38.058667 36.096v505.642666a37.12 37.12 0 0 0 38.058667 36.138667h228.266667a37.12 37.12 0 0 1 38.016 36.096v76.8l169.173333-106.666667a38.101333 38.101333 0 0 1 13.696-5.333333l7.381333-0.725333h228.224a37.12 37.12 0 0 0 38.058667-36.138667V208.426667a37.162667 37.162667 0 0 0-38.058667-36.138667z m0 0" fill="#1296db" p-id="13366"></path><path d="M320 635.733333c17.92 0 27.861333-9.216 34.858667-32.597333l18.901333-57.770667h119.210667L512 603.050667c6.741333 23.125333 17.066667 32.597333 35.328 32.597333a28.8 28.8 0 0 0 31.872-29.354667 86.485333 86.485333 0 0 0-5.205333-25.898666l-85.632-245.418667c-10.709333-31.829333-25.6-44.757333-53.76-44.757333s-43.52 13.184-54.229334 44.757333L294.741333 580.266667a87.893333 87.893333 0 0 0-5.973333 27.136 28.16 28.16 0 0 0 31.232 28.330666z m68.693333-140.373333l43.306667-137.386667h3.2l43.050667 137.386667z m272.256 139.861333a31.914667 31.914667 0 0 0 33.365334-36.352V326.784a33.706667 33.706667 0 1 0-67.2 0v272.042667a32.085333 32.085333 0 0 0 33.834666 36.309333z m0 0" fill="#1296db" p-id="13367"></path></svg>