<?xml version="1.0" standalone="no"?><!DOCTYPE svg PUBLIC "-//W3C//DTD SVG 1.1//EN" "http://www.w3.org/Graphics/SVG/1.1/DTD/svg11.dtd"><svg t="1764422823158" class="icon" viewBox="0 0 1024 1024" version="1.1" xmlns="http://www.w3.org/2000/svg" p-id="16725" xmlns:xlink="http://www.w3.org/1999/xlink" width="200" height="200"><path d="M361.375 682.143h308.173c157.347 0 228.577 119.838 243.502 275.43l36.413-40.115H81.464l36.414 40.115c14.925-155.627 86.052-275.43 243.497-275.43zM81.465 990.694h868.003c21.586 0 38.477-18.61 36.414-40.12-18.51-193.07-121.206-341.663-316.33-341.663H361.38c-195.22 0-297.815 148.578-316.324 341.663-2.068 21.51 14.817 40.12 36.408 40.12zM769.54 315.556c0-144.917-117.366-262.38-262.118-262.38-144.779 0-262.144 117.463-262.144 262.38 0 144.911 117.365 262.395 262.144 262.395 144.752 0 262.118-117.484 262.118-262.395z m-451.113 0c0-104.469 84.613-189.138 188.99-189.138 104.35 0 188.958 84.674 188.958 189.138s-84.608 189.158-188.958 189.158c-104.372 0-188.99-84.69-188.99-189.158z" p-id="16726" fill="#8a8a8a"></path></svg>