<?xml version="1.0" standalone="no"?><!DOCTYPE svg PUBLIC "-//W3C//DTD SVG 1.1//EN" "http://www.w3.org/Graphics/SVG/1.1/DTD/svg11.dtd"><svg t="1764422767883" class="icon" viewBox="0 0 1024 1024" version="1.1" xmlns="http://www.w3.org/2000/svg" p-id="14683" xmlns:xlink="http://www.w3.org/1999/xlink" width="200" height="200"><path d="M933.312 104.576V870.4l-34.112 0.576c-112.448 2.88-212.288 15.872-299.456 39.168-28.864 7.68-56.384 16.512-82.368 26.432a840.64 840.64 0 0 0-82.56-26.432c-87.104-23.296-186.944-36.288-299.392-39.168l-34.112-0.576V104.576c117.12 0.832 221.184 12.288 312.064 34.24v95.68l-0.768-0.192c-65.344-17.472-139.328-28.8-221.888-33.792v579.712c97.728 5.376 186.496 18.56 266.368 39.872 20.672 5.504 40.768 11.584 60.224 18.176 19.392-6.592 39.488-12.608 60.16-18.176 79.808-21.248 168.384-34.496 266.368-39.872V200.512l-30.528 2.176c-70.4 5.76-134.144 16.384-191.36 31.616-16.64 4.416-32.576 9.216-47.872 14.4v302.656H484.608V186.624c102.72-55.296 251.904-74.88 447.424-78.848l-0.128-3.2h1.408z" fill="#8a8a8a" p-id="14684"></path></svg>