<?xml version="1.0" standalone="no"?><!DOCTYPE svg PUBLIC "-//W3C//DTD SVG 1.1//EN" "http://www.w3.org/Graphics/SVG/1.1/DTD/svg11.dtd"><svg t="1765008502707" class="icon" viewBox="0 0 1024 1024" version="1.1" xmlns="http://www.w3.org/2000/svg" p-id="4584" xmlns:xlink="http://www.w3.org/1999/xlink" width="200" height="200"><path d="M913.4 764.8l-8.1-4.7v-1.9-2l8.1-4.7c9.9-5.7 17-14.9 19.9-26 2.9-11 1.4-22.5-4.3-32.3l-38.6-66.8c-5.7-9.9-14.9-17-25.9-19.9-11.1-2.9-22.6-1.4-32.5 4.3l-8.1 4.7c-1.1-0.6-2.2-1.3-3.3-1.9v-9.4c0-23.6-19.2-42.8-42.8-42.8h-77.2c-23.6 0-42.8 19.2-42.8 42.8v9.4c-1.1 0.6-2.2 1.3-3.3 1.9l-8.1-4.7c-9.9-5.6-21.4-7.1-32.5-4.2-11 2.9-20.2 10.1-25.9 19.9l-38.5 66.8c-5.7 9.9-7.3 21.4-4.3 32.4 2.9 11.1 10 20.3 19.9 26.1l8.7 5v3.2l-8.8 5.1c-20.4 11.8-27.4 38-15.6 58.4l38.6 66.8c5.7 9.9 14.9 17 25.9 19.9 11 2.8 22.5 1.4 32.5-4.3l8.2-4.7c0.1 0.1 0.3 0.2 0.4 0.2 1 0.6 1.9 1.2 2.9 1.7v9.4c0 23.6 19.2 42.7 42.8 42.7h77.2c23.6 0 42.8-19.2 42.8-42.7v-9.4c1.1-0.6 2.2-1.2 3.3-1.9l8.2 4.8c9.9 5.6 21.5 7.1 32.5 4.2 11-2.9 20.2-10.1 25.9-19.9l38.6-66.8c11.5-20.7 4.6-46.9-15.8-58.7zM849 852.2l-12.5-7.2c-9.5-5.6-21.4-4.8-30.2 1.8-7.7 5.9-15.7 10.6-23.8 13.9-10.1 4.3-16.7 14.2-16.7 25.3v14.2h-53V886c0-11-6.5-20.9-16.6-25.2-4.5-1.9-8.8-4.1-13.1-6.7-3.7-2.2-7.4-4.7-10.8-7.3-8.8-6.5-20.6-7.3-30.2-1.8l-12.5 7.2-26.5-46 12.5-7.2c9.3-5.4 14.6-16.2 13.5-27-0.4-4.2-0.4-23.5 0-27.6 1.4-10.9-4-21.6-13.5-27.2l-12.5-7.2 26.5-45.9 12.5 7.2c9.6 5.5 21.5 4.8 30.3-1.9 7.6-5.7 15.5-10.4 23.7-13.8 10.1-4.3 16.7-14.2 16.7-25.3V616h53v14.3c0 11 6.6 20.9 16.7 25.3 8.1 3.4 16.1 8.1 23.7 13.8 8.8 6.7 20.8 7.4 30.3 1.9l12.5-7.2 26.5 45.9-12.5 7.2c-9.6 5.5-14.9 16.2-13.5 27.2 0.6 4.5 1 9.1 1 13.8 0 4.7-0.4 9.2-1 13.7-1.4 10.9 4 21.6 13.5 27.1l12.5 7.2-26.5 46z" p-id="4585"></path><path d="M739.2 669.1c-49.1 0-89 40-89 89.1 0 49.1 40 89 89 89 49.1 0 89-40 89-89 0-49.1-39.9-89.1-89-89.1z m0 123.3c-18.9 0-34.2-15.3-34.2-34.2 0-18.9 15.3-34.2 34.2-34.2 18.9 0 34.2 15.4 34.2 34.2 0 18.8-15.4 34.2-34.2 34.2zM761.6 343.1c0-146.4-119.1-265.5-265.6-265.5S230.4 196.7 230.4 343.1c0 98.9 55 184.3 135.4 230C206.9 620.8 85 753.4 57.6 923.3c-2.4 14.9 7.8 29 22.7 31.4 1.5 0.3 2.9 0.4 4.4 0.4 13.2 0 24.9-9.6 27-23.1C141.9 744.7 303.5 608.7 496 608.7c146.4 0 265.6-119.1 265.6-265.6zM496 553.9c-116.2 0-210.7-94.5-210.7-210.7 0-116.2 94.5-210.7 210.7-210.7S706.7 227 706.7 343.1c0 116.3-94.5 210.8-210.7 210.8z" p-id="4586"></path></svg>