<?xml version="1.0" standalone="no"?><!DOCTYPE svg PUBLIC "-//W3C//DTD SVG 1.1//EN" "http://www.w3.org/Graphics/SVG/1.1/DTD/svg11.dtd"><svg t="1765851386315" class="icon" viewBox="0 0 1024 1024" version="1.1" xmlns="http://www.w3.org/2000/svg" p-id="13911" xmlns:xlink="http://www.w3.org/1999/xlink" width="200" height="200"><path d="M981.3 810.7c-23.6 0-42.7-19.1-42.7-42.7V554.7c0-23.6 19.1-42.7 42.7-42.7s42.7 19.1 42.7 42.7V768c0 23.6-19.1 42.7-42.7 42.7zM768 938.7H256c-70.7 0-128-57.3-128-128v-384c0-70.7 57.3-128 128-128h213.3v-54.5c-25.4-14.8-42.7-42-42.7-73.5 0-47.1 38.2-85.3 85.3-85.3s85.3 38.2 85.3 85.3c0 31.5-17.3 58.7-42.7 73.5v54.5H768c70.7 0 128 57.3 128 128v384c0 70.7-57.3 128-128 128z m42.7-469.4c0-47.1-38.2-85.3-85.3-85.3H298.7c-47.1 0-85.3 38.2-85.3 85.3V768c0 47.1 38.2 85.3 85.3 85.3h426.7c47.1 0 85.3-38.2 85.3-85.3V469.3zM661.3 682.7c-35.3 0-64-28.7-64-64s28.7-64 64-64 64 28.7 64 64-28.6 64-64 64z m-298.6 0c-35.3 0-64-28.7-64-64s28.7-64 64-64 64 28.7 64 64-28.7 64-64 64z m-320 128C19.1 810.7 0 791.6 0 768V554.7C0 531.1 19.1 512 42.7 512s42.7 19.1 42.7 42.7V768c-0.1 23.6-19.2 42.7-42.7 42.7z" fill="#515151" p-id="13912"></path></svg>